<?xml version="1.0" encoding="UTF-8" standalone="no"?>
<svg width="114px" height="21px" viewBox="0 0 114 21" version="1.1" xmlns="http://www.w3.org/2000/svg" xmlns:xlink="http://www.w3.org/1999/xlink">
    <!-- Generator: Sketch 3.8.3 (29802) - http://www.bohemiancoding.com/sketch -->
    <title>Logo</title>
    <desc>Created with Sketch.</desc>
    <defs></defs>
    <g id="Studio-Settings---Locations" stroke="none" stroke-width="1" fill="none" fill-rule="evenodd">
        <g id="StudioHq---Studio-Settings---Locations---1" transform="translate(-101.000000, -52.000000)" fill="#222328">
            <g id="Header" transform="translate(101.000000, 49.000000)">
                <path d="M0.026,19.462 C1.511,21.136 3.806,22.324 6.938,22.324 C11.798,22.324 13.58,19.651 13.58,17.032 C13.58,13.252 10.232,12.334 7.289,11.551 C4.994,10.93 2.915,10.39 2.915,8.581 C2.915,6.88 4.454,5.719 6.614,5.719 C8.585,5.719 10.475,6.394 11.825,7.879 L13.175,6.232 C11.663,4.639 9.53,3.721 6.776,3.721 C3.239,3.721 0.593,5.746 0.593,8.716 C0.593,12.253 3.806,13.063 6.695,13.819 C9.071,14.467 11.258,15.061 11.258,17.221 C11.258,18.598 10.232,20.326 7.019,20.326 C4.481,20.326 2.537,19.084 1.349,17.761 L0.026,19.462 Z M19.682,22.324 C20.87,22.324 21.599,21.973 22.112,21.487 L21.518,19.975 C21.248,20.272 20.708,20.515 20.141,20.515 C19.25,20.515 18.818,19.813 18.818,18.841 L18.818,10.741 L21.464,10.741 L21.464,8.959 L18.818,8.959 L18.818,5.395 L16.793,5.395 L16.793,8.959 L14.633,8.959 L14.633,10.741 L16.793,10.741 L16.793,19.273 C16.793,21.217 17.765,22.324 19.682,22.324 L19.682,22.324 Z M33.128,22 L35.153,22 L35.153,8.959 L33.128,8.959 L33.128,18.544 C32.372,19.597 30.86,20.515 29.267,20.515 C27.512,20.515 26.351,19.84 26.351,17.545 L26.351,8.959 L24.326,8.959 L24.326,18.166 C24.326,21.001 25.757,22.324 28.484,22.324 C30.428,22.324 32.129,21.298 33.128,20.164 L33.128,22 Z M48.653,22 L50.678,22 L50.678,3.991 L48.653,3.991 L48.653,10.93 C47.6,9.499 46.007,8.635 44.252,8.635 C40.823,8.635 38.447,11.335 38.447,15.493 C38.447,19.732 40.85,22.324 44.252,22.324 C46.088,22.324 47.681,21.379 48.653,20.056 L48.653,22 Z M48.653,18.463 C47.924,19.597 46.358,20.515 44.738,20.515 C42.119,20.515 40.553,18.382 40.553,15.493 C40.553,12.604 42.119,10.444 44.738,10.444 C46.358,10.444 47.924,11.416 48.653,12.55 L48.653,18.463 Z M55.727,7.096 C56.483,7.096 57.104,6.502 57.104,5.746 C57.104,4.99 56.483,4.369 55.727,4.369 C54.998,4.369 54.377,4.99 54.377,5.746 C54.377,6.502 54.998,7.096 55.727,7.096 L55.727,7.096 Z M54.728,22 L56.753,22 L56.753,8.959 L54.728,8.959 L54.728,22 Z M66.5,22.324 C70.469,22.324 72.953,19.246 72.953,15.466 C72.953,11.686 70.469,8.635 66.5,8.635 C62.531,8.635 60.047,11.686 60.047,15.466 C60.047,19.246 62.531,22.324 66.5,22.324 L66.5,22.324 Z M66.5,20.515 C63.719,20.515 62.153,18.139 62.153,15.466 C62.153,12.82 63.719,10.444 66.5,10.444 C69.281,10.444 70.82,12.82 70.82,15.466 C70.82,18.139 69.281,20.515 66.5,20.515 L66.5,20.515 Z M88.343,22 L92.204,22 L92.204,3.991 L88.343,3.991 L88.343,11.065 L79.838,11.065 L79.838,3.991 L76.004,3.991 L76.004,22 L79.838,22 L79.838,14.44 L88.343,14.44 L88.343,22 Z M113.696,13.009 C113.696,7.582 109.727,3.694 104.273,3.694 C98.846,3.694 94.877,7.582 94.877,13.009 C94.877,18.436 98.846,22.324 104.273,22.324 C105.839,22.324 107.297,22 108.566,21.406 L109.997,23.107 L112.67,20.92 L111.347,19.381 C112.805,17.734 113.696,15.547 113.696,13.009 L113.696,13.009 Z M104.273,18.922 C100.952,18.922 98.819,16.357 98.819,13.009 C98.819,9.634 100.952,7.096 104.273,7.096 C107.594,7.096 109.754,9.634 109.754,13.009 C109.754,14.305 109.43,15.493 108.836,16.438 L106.838,14.116 L104.192,16.303 L106.163,18.598 C105.596,18.814 104.948,18.922 104.273,18.922 L104.273,18.922 Z" id="Logo"></path>
            </g>
        </g>
    </g>
</svg>